<svg id="custom_copy" data-name="custom copy" xmlns="http://www.w3.org/2000/svg" width="1999.543" height="755.444" viewBox="0 0 2200.686 831.437">
  <metadata><?xpacket begin="﻿" id="W5M0MpCehiHzreSzNTczkc9d"?>
<x:xmpmeta xmlns:x="adobe:ns:meta/" x:xmptk="Adobe XMP Core 5.6-c138 79.159824, 2016/09/14-01:09:01        ">
   <rdf:RDF xmlns:rdf="http://www.w3.org/1999/02/22-rdf-syntax-ns#">
      <rdf:Description rdf:about=""/>
   </rdf:RDF>
</x:xmpmeta>
                                                                                                    
                                                                                                    
                                                                                                    
                                                                                                    
                                                                                                    
                                                                                                    
                                                                                                    
                                                                                                    
                                                                                                    
                                                                                                    
                                                                                                    
                                                                                                    
                                                                                                    
                                                                                                    
                                                                                                    
                                                                                                    
                                                                                                    
                                                                                                    
                                                                                                    
                                                                                                    
                           
<?xpacket end="w"?></metadata>
<defs>
    <style>
      .cls-1, .cls-2 {
        fill-rule: evenodd;
      }

      .cls-2 {
        opacity: 0.2;
      }
    </style>
  </defs>
  <path id="_6xs" data-name="6xs" class="cls-1" d="M33.713,710.429l-1.884,36.362H36.3q0.823-10.518,5.182-16.694a21.705,21.705,0,0,1,10.482-8.348q4.709-1.6,15.9-1.6h19.2V838.611q0,13.035-2.591,16.694-4.24,5.948-14.369,5.946H64.452v4.231h67.721v-4.231h-5.535q-9.3,0-13.78-4.8-3.18-3.543-3.18-17.838V720.149h22.5q9.894,0,15.959,3.144a23.3,23.3,0,0,1,9.717,9.777q2.235,4.116,3.533,13.721h4.475l-1.766-36.362H33.713Z" transform="translate(-31.844 -35.125)"/>
  <path id="_5xs" data-name="5xs" class="cls-2" d="M171.518,687.144l-2.167,41.816H174.5q0.947-12.1,5.959-19.2a24.971,24.971,0,0,1,12.055-9.6q5.415-1.839,18.284-1.841h22.078V834.553q0,14.991-2.98,19.2-4.877,6.839-16.524,6.838h-6.5v4.865h77.879V860.59h-6.366q-10.7,0-15.846-5.523-3.657-4.075-3.657-20.514V698.321h25.869q11.378,0,18.353,3.617a26.793,26.793,0,0,1,11.174,11.243q2.571,4.734,4.063,15.779h5.147l-2.032-41.816H171.518Z" transform="translate(-31.844 -35.125)"/>
  <path id="_4xs" data-name="4xs" class="cls-2" d="M308.376,661.505l-2.492,48.089H311.8q1.088-13.911,6.853-22.079t13.863-11.039q6.226-2.115,21.027-2.117h25.389V831.025q0,17.24-3.427,22.079-5.607,7.864-19,7.863h-7.476v5.6H438.59v-5.6h-7.32q-12.306,0-18.224-6.351-4.206-4.686-4.206-23.591V674.359h29.75q13.084,0,21.106,4.159a30.818,30.818,0,0,1,12.85,12.929q2.957,5.445,4.673,18.147h5.918L480.8,661.505H308.376Z" transform="translate(-31.844 -35.125)"/>
  <path id="_3xs" data-name="3xs" class="cls-2" d="M443.2,629.363l-2.866,55.3h6.807q1.251-16,7.881-25.39T470.96,646.58q7.163-2.435,24.182-2.435h29.2V824.311q0,19.826-3.941,25.39-6.448,9.045-21.853,9.043h-8.6v6.435h103v-6.435h-8.419q-14.152,0-20.957-7.3-4.836-5.388-4.836-27.129V644.145h34.212q15.047,0,24.271,4.782A35.441,35.441,0,0,1,631.992,663.8q3.4,6.261,5.373,20.869h6.807l-2.687-55.3H443.2Z" transform="translate(-31.844 -35.125)"/>
  <path id="_2xs" data-name="2xs" class="cls-2" d="M576.79,594.108l-3.3,63.6h7.828q1.438-18.4,9.063-29.2t18.333-14.6q8.236-2.8,27.809-2.8H670.1V818.3q0,22.8-4.532,29.2-7.416,10.4-25.131,10.4h-9.887v7.4H749v-7.4h-9.681q-16.275,0-24.1-8.4-5.562-6.2-5.562-31.2V611.107H749q17.3,0,27.912,5.5a40.75,40.75,0,0,1,17,17.1q3.91,7.2,6.179,24h7.828l-3.09-63.6H576.79Z" transform="translate(-31.844 -35.125)"/>
  <path id="_1xs" data-name="1xs" class="cls-2" d="M707.322,551.476l-3.79,73.137h9q1.654-21.158,10.423-33.579t21.083-16.789q9.473-3.217,31.98-3.22h38.613V809.3q0,26.219-5.211,33.579-8.528,11.961-28.9,11.959h-11.37v8.51H905.362v-8.51H894.228q-18.715,0-27.716-9.659-6.4-7.126-6.4-35.879V571.025h45.246q19.9,0,32.1,6.325T957,597.014q4.5,8.28,7.107,27.6h9l-3.554-73.137H707.322Z" transform="translate(-31.844 -35.125)"/>
  <path id="base" class="cls-1" d="M836.135,504.728l-4.359,84.107h10.352q1.9-24.332,11.987-38.615t24.245-19.308q10.893-3.7,36.777-3.7h44.405V801.22q0,30.151-5.993,38.615-9.807,13.755-33.235,13.753H907.237v9.786H1063.88v-9.786h-12.8q-21.525,0-31.88-11.108-7.35-8.194-7.35-41.26V527.209h52.03q22.89,0,36.91,7.274,14.04,7.276,22.48,22.613,5.175,9.522,8.17,31.739h10.35l-4.08-84.107H836.135Z" transform="translate(-31.844 -35.125)"/>
  <path id="_1xl" data-name="1xl" class="cls-2" d="M960.769,453.245l-5.013,96.723h11.9q2.189-27.979,13.785-44.407t27.884-22.2q12.525-4.256,42.29-4.258h51.07V794.211q0,34.674-6.89,44.407-11.28,15.819-38.23,15.817h-15.03v11.254h180.14V854.435h-14.73q-24.75,0-36.65-12.775-8.46-9.424-8.46-47.449V479.1h59.84q26.31,0,42.45,8.364,16.125,8.37,25.84,26.006,5.955,10.95,9.4,36.5h11.91l-4.7-96.723H960.769Z" transform="translate(-31.844 -35.125)"/>
  <path id="_2xl" data-name="2xl" class="cls-2" d="M1083,388.725l-5.77,111.232h13.69q2.52-32.178,15.86-51.069,13.32-18.889,32.06-25.535,14.415-4.893,48.64-4.9h58.73V780.835q0,39.876-7.93,51.069-12.975,18.192-43.96,18.189h-17.29v12.942h207.16V850.093h-16.93q-28.47,0-42.15-14.691-9.735-10.838-9.73-54.567V418.456h68.81q30.27,0,48.82,9.62t29.72,29.906q6.84,12.592,10.81,41.975h13.69l-5.4-111.232H1083Z" transform="translate(-31.844 -35.125)"/>
  <path id="_3xl" data-name="3xl" class="cls-2" d="M1200.86,317.943l-6.63,127.917h15.75q2.895-37,18.23-58.729,15.315-21.721,36.87-29.365,16.575-5.628,55.94-5.631h67.53V768.87q0,45.858-9.12,58.729-14.91,20.921-50.54,20.918H1309V863.4h238.24V848.517h-19.48q-32.73,0-48.47-16.9-11.19-12.463-11.19-62.752V352.135h79.14q34.8,0,56.14,11.062t34.18,34.392q7.86,14.483,12.43,48.271h15.74l-6.21-127.917H1200.86Z" transform="translate(-31.844 -35.125)"/>
  <path id="_4xl" data-name="4xl" class="cls-2" d="M1314.71,236.165l-7.63,147.1h18.11q3.33-42.555,20.96-67.538t42.41-33.77q19.05-6.472,64.32-6.476h77.67V754.731q0,52.736-10.49,67.538-17.145,24.058-58.13,24.055h-22.87V863.44h273.97V846.324h-22.39q-37.65,0-55.75-19.429-12.855-14.332-12.86-72.164V275.485h91q40.035,0,64.57,12.721t39.31,39.552q9.045,16.653,14.29,55.511h18.11l-7.15-147.1H1314.71Z" transform="translate(-31.844 -35.125)"/>
  <path id="_5xl" data-name="5xl" class="cls-2" d="M1423.23,142.309l-8.77,169.17h20.82q3.825-48.937,24.11-77.669,20.265-28.727,48.77-38.834,21.9-7.445,73.97-7.448h89.31V738.661q0,60.645-12.05,77.669-19.725,27.667-66.85,27.663h-26.3v19.683H1881.3V843.993h-25.75q-43.29,0-64.11-22.343-14.79-16.484-14.79-82.989V187.528H1881.3q46.035,0,74.25,14.629t45.2,45.485q10.41,19.151,16.44,63.837h20.82l-8.21-169.17H1423.23Z" transform="translate(-31.844 -35.125)"/>
  <path id="_6xl" data-name="6xl" class="cls-1" d="M1525.52,35.135l-10.08,194.546h23.95q4.395-56.28,27.72-89.32t56.08-44.66q25.2-8.56,85.07-8.565h102.71v633.8q0,69.742-13.86,89.32-22.68,31.817-76.88,31.812h-30.24v22.636h362.32V842.071H2022.7q-49.785,0-73.73-25.7-17.01-18.955-17.01-95.437V87.136h120.35q52.935,0,85.39,16.824t51.98,52.307q11.97,22.024,18.91,73.414h23.94l-9.45-194.546H1525.52Z" transform="translate(-31.844 -35.125)"/>
</svg>
